# xmcd CD database file
#
# Track frame offsets:
#	151
#	21966
#	35381
#	59419
#	116008
#	141692
#	168690
#	195412
#	219976
#	243276
#
# Disc length: 3582 seconds
#
# Revision: 0
# Processed by: cddbd v1.5.1PL0 Copyright (c) Steve Scherf et al.
# Submitted via: CDex 1.51
#
DISCID=920dfc0a
DTITLE=Nepathyâ - Resham
DYEAR=2000
DGENRE=Blues
TTITLE0=Resham
TTITLE1=Dhak Dhak
TTITLE2=Yo Jhindagi
TTITLE3=Ghatna
TTITLE4=Ukali Orali
TTITLE5=Maya Garneybani
TTITLE6=Yani Maya
TTITLE7=Lampatey Surati
TTITLE8=Naranro Sapana
TTITLE9=Mai Nachey
EXTD=YEAR: 2000
EXTT0=
EXTT1=
EXTT2=
EXTT3=
EXTT4=
EXTT5=
EXTT6=
EXTT7=
EXTT8=
EXTT9=
PLAYORDER=
